M48
; DRILL file {KiCad (5.1.4)-1} date 18.10.2019 22:13:55
; FORMAT={-:-/ absolute / inch / decimal}
; #@! TF.CreationDate,2019-10-18T22:13:55+02:00
; #@! TF.GenerationSoftware,Kicad,Pcbnew,(5.1.4)-1
; #@! TF.FileFunction,Plated,1,2,PTH
FMAT,2
INCH
T1C0.0157
T2C0.0197
T3C0.0315
T4C0.0354
T5C0.0362
T6C0.0394
T7C0.0433
T8C0.0472
T9C0.0902
T10C0.0906
T11C0.0984
T12C0.1260
%
G90
G05
T1
X5.625Y-5.457
X5.635Y-5.397
X5.66Y-5.487
X5.665Y-5.427
X5.695Y-5.242
X5.695Y-5.302
X5.695Y-5.367
X5.725Y-5.272
X5.725Y-5.332
X5.775Y-4.737
X5.775Y-5.5495
X5.875Y-4.767
X5.875Y-5.5845
X5.975Y-5.6145
X5.975Y-4.797
X6.075Y-4.827
X6.075Y-5.6495
X6.175Y-4.857
X6.1775Y-3.487
X6.195Y-5.497
X6.225Y-5.637
X6.255Y-5.607
X6.2775Y-3.517
X6.285Y-5.571
X6.375Y-4.357
X6.375Y-5.497
X6.3775Y-3.547
X6.41Y-5.637
X6.443Y-5.571
X6.4775Y-3.577
X6.481Y-5.391
X6.481Y-5.539
X6.485Y-5.607
X6.515Y-7.892
X6.575Y-4.367
X6.5775Y-3.612
X6.615Y-7.872
X6.6775Y-3.642
X6.715Y-7.837
X6.7775Y-3.672
X6.8Y-5.467
X6.815Y-7.587
X6.8775Y-3.702
X6.915Y-7.572
X6.97Y-5.387
X6.975Y-5.007
X7.015Y-7.547
X7.075Y-5.037
X7.075Y-5.357
X7.115Y-7.532
X7.215Y-7.512
X7.255Y-5.067
X7.315Y-7.4768
X7.415Y-7.457
X7.445Y-3.447
X7.445Y-4.527
X7.515Y-7.427
X7.675Y-5.847
X7.6898Y-3.8222
X7.7898Y-4.527
X7.79Y-3.792
X7.8898Y-4.5622
X7.89Y-3.762
X7.975Y-5.577
X7.9898Y-3.732
X7.9898Y-4.597
X8.045Y-5.067
X8.075Y-5.5445
X8.0898Y-4.627
X8.09Y-3.702
X8.175Y-5.067
X8.19Y-3.672
X8.19Y-4.807
X8.265Y-5.607
X8.2898Y-4.7942
X8.29Y-3.642
X8.34Y-5.6845
X8.34Y-5.972
X8.3898Y-4.7762
X8.39Y-3.612
X8.4125Y-5.607
X8.4898Y-4.7622
X8.49Y-3.577
X8.51Y-6.867
X8.515Y-5.607
X8.5275Y-5.7095
X8.5898Y-3.547
X8.5898Y-4.7358
X8.6Y-5.087
X8.61Y-6.862
X8.6825Y-5.7095
X8.685Y-5.607
X8.6898Y-4.7322
X8.69Y-3.517
X8.71Y-6.852
X8.79Y-3.487
X8.7902Y-4.7142
X8.81Y-6.857
X8.8898Y-4.7182
X8.945Y-6.627
X8.9898Y-5.207
X9.01Y-6.542
X9.065Y-7.047
X9.09Y-3.207
X9.11Y-6.948
X9.165Y-5.6745
X9.165Y-5.7595
X9.201Y-5.641
X9.201Y-5.782
X9.21Y-6.95
X9.247Y-5.6125
X9.247Y-5.752
X9.281Y-5.583
X9.281Y-5.782
X9.29Y-4.5837
X9.31Y-6.952
X9.315Y-5.551
X9.315Y-5.752
X9.335Y-4.807
X9.353Y-5.517
X9.353Y-5.782
X9.385Y-5.477
X9.385Y-5.752
X9.41Y-6.947
X9.417Y-5.443
X9.417Y-5.782
X9.455Y-5.412
X9.48Y-3.867
X9.48Y-3.9299
X9.485Y-3.987
X9.485Y-4.637
X9.485Y-4.697
X9.4855Y-4.047
X9.495Y-5.377
X9.51Y-6.947
X9.515Y-3.897
X9.5185Y-3.9585
X9.525Y-4.017
X9.535Y-4.077
X9.535Y-4.667
X9.535Y-4.727
X9.55Y-6.542
X9.59Y-5.7995
X9.61Y-6.952
X9.615Y-3.447
X9.644Y-4.158
X9.644Y-4.848
X9.645Y-3.832
X9.675Y-4.207
X9.675Y-4.757
X9.685Y-5.047
X9.705Y-4.312
X9.71Y-6.954
X9.81Y-6.954
X9.81Y-7.417
X9.815Y-3.197
X9.815Y-3.807
X9.815Y-4.377
X9.835Y-4.5837
X9.91Y-7.5182
X9.915Y-3.187
X9.915Y-3.807
X9.915Y-4.367
X9.945Y-5.352
X10.015Y-3.217
X10.015Y-3.807
X10.015Y-4.367
X10.045Y-5.411
X10.11Y-6.772
X10.115Y-3.247
X10.115Y-3.807
X10.115Y-4.367
X10.145Y-5.437
X10.215Y-3.277
X10.215Y-3.807
X10.215Y-4.362
X10.245Y-5.467
X10.315Y-3.307
X10.315Y-3.807
X10.315Y-4.357
X10.345Y-5.489
X10.35Y-6.517
X10.415Y-3.337
X10.415Y-3.812
X10.415Y-4.352
X10.445Y-5.539
X10.506Y-6.5971
X10.515Y-3.372
X10.515Y-3.807
X10.515Y-4.352
X10.545Y-5.567
X10.615Y-3.412
X10.635Y-6.097
X10.635Y-6.3293
X10.645Y-5.599
X10.675Y-6.067
X10.675Y-6.2993
X10.705Y-6.017
X10.705Y-6.267
X10.715Y-3.457
X10.735Y-6.597
X10.735Y-6.797
X10.745Y-5.607
X10.815Y-3.427
X10.845Y-5.337
X10.865Y-4.3133
X10.9Y-6.657
X10.915Y-3.397
X10.925Y-6.797
X10.945Y-5.427
X10.945Y-5.657
X10.9515Y-6.3896
X10.965Y-4.637
X10.965Y-4.697
X10.9854Y-6.977
X10.9925Y-6.657
X11.005Y-4.287
X11.005Y-4.667
X11.005Y-4.727
X11.0125Y-6.517
X11.015Y-3.852
X11.0287Y-4.3633
X11.045Y-5.612
X11.115Y-3.532
X11.185Y-3.457
X11.205Y-4.067
X11.2119Y-6.5714
X11.215Y-5.337
X11.225Y-4.467
X11.245Y-4.287
X11.2487Y-4.3633
X11.255Y-4.637
X11.255Y-4.727
X11.27Y-3.817
X11.285Y-4.667
X11.29Y-4.317
X11.295Y-5.427
X11.3Y-3.717
X11.3Y-3.917
X11.3Y-4.417
X11.3Y-3.417
X11.315Y-4.202
X11.315Y-4.697
X11.33Y-4.017
X11.345Y-4.117
X11.535Y-5.857
T2
X5.5374Y-8.1224
X5.565Y-8.0555
X5.565Y-8.1892
X5.6319Y-8.0279
X5.6319Y-8.2169
X5.6987Y-8.0555
X5.6987Y-8.1892
X5.7263Y-8.1224
X11.4429Y-8.1224
X11.4705Y-8.0555
X11.4705Y-8.1892
X11.5374Y-8.0279
X11.5374Y-8.2169
X11.6042Y-8.0555
X11.6042Y-8.1892
X11.6319Y-8.1224
X11.4429Y-2.2169
X11.4705Y-2.15
X11.4705Y-2.2837
X11.5374Y-2.1224
X11.5374Y-2.3113
X11.6042Y-2.15
X11.6042Y-2.2837
X11.6319Y-2.2169
X5.5374Y-2.2169
X5.565Y-2.15
X5.565Y-2.2837
X5.6319Y-2.1224
X5.6319Y-2.3113
X5.6987Y-2.15
X5.6987Y-2.2837
X5.7263Y-2.2169
T3
X9.02Y-3.362
X9.02Y-3.662
X7.6Y-2.507
X7.9Y-2.507
X7.445Y-5.677
X7.445Y-5.7754
X8.31Y-7.247
X8.31Y-7.847
X8.41Y-7.247
X8.41Y-7.847
X8.51Y-7.247
X8.51Y-7.847
X8.61Y-7.247
X8.61Y-7.847
X8.71Y-7.247
X8.71Y-7.847
X8.81Y-7.247
X8.81Y-7.847
X8.91Y-7.247
X8.91Y-7.847
X9.01Y-7.247
X9.01Y-7.847
X9.11Y-7.247
X9.11Y-7.847
X9.21Y-7.247
X9.21Y-7.847
X9.31Y-7.247
X9.31Y-7.847
X9.41Y-7.247
X9.41Y-7.847
X9.51Y-7.247
X9.51Y-7.847
X9.61Y-7.247
X9.61Y-7.847
X9.71Y-7.247
X9.71Y-7.847
X9.81Y-7.247
X9.81Y-7.847
X9.91Y-7.247
X9.91Y-7.847
X10.01Y-7.247
X10.01Y-7.847
X10.11Y-7.247
X10.11Y-7.847
X10.21Y-7.247
X10.21Y-7.847
X10.115Y-2.147
X10.215Y-2.147
X10.315Y-2.147
X10.415Y-2.147
X10.515Y-2.147
X10.615Y-2.147
X10.715Y-2.147
X10.815Y-2.147
X10.915Y-2.147
X10.025Y-7.112
X10.325Y-7.112
X9.985Y-6.1186
X9.985Y-6.217
X8.208Y-2.1915
X8.208Y-2.4915
X8.308Y-2.1915
X8.308Y-2.4915
X9.315Y-3.047
X9.315Y-3.647
X9.415Y-3.047
X9.415Y-3.647
X9.515Y-3.047
X9.515Y-3.647
X9.615Y-3.047
X9.615Y-3.647
X9.715Y-3.047
X9.715Y-3.647
X9.815Y-3.047
X9.815Y-3.647
X9.915Y-3.047
X9.915Y-3.647
X10.015Y-3.047
X10.015Y-3.647
X10.115Y-3.047
X10.115Y-3.647
X10.215Y-3.047
X10.215Y-3.647
X10.315Y-3.047
X10.315Y-3.647
X10.415Y-3.047
X10.415Y-3.647
X10.515Y-3.047
X10.515Y-3.647
X10.615Y-3.047
X10.615Y-3.647
X10.715Y-3.047
X10.715Y-3.647
X10.815Y-3.047
X10.815Y-3.647
X10.915Y-3.047
X10.915Y-3.647
X11.015Y-3.047
X11.015Y-3.647
X11.115Y-3.047
X11.115Y-3.647
X11.215Y-3.047
X11.215Y-3.647
X10.9466Y-5.067
X11.045Y-5.067
X8.6Y-5.317
X8.6Y-5.917
X8.9Y-5.317
X8.9Y-5.917
X7.211Y-5.6686
X7.211Y-5.767
X5.955Y-2.485
X6.255Y-2.485
X5.775Y-5.167
X5.775Y-5.767
X5.875Y-5.167
X5.875Y-5.767
X5.975Y-5.167
X5.975Y-5.767
X6.075Y-5.167
X6.075Y-5.767
X6.175Y-5.167
X6.175Y-5.767
X6.275Y-5.167
X6.275Y-5.767
X6.375Y-5.167
X6.375Y-5.767
X6.475Y-5.167
X6.475Y-5.767
X6.575Y-5.167
X6.575Y-5.767
X6.675Y-5.167
X6.675Y-5.767
X6.775Y-5.167
X6.775Y-5.767
X6.875Y-5.167
X6.875Y-5.767
X6.975Y-5.167
X6.975Y-5.767
X7.075Y-5.167
X7.075Y-5.767
X9.195Y-3.362
X9.195Y-3.662
X7.345Y-5.167
X7.345Y-5.467
X7.445Y-5.167
X7.445Y-5.467
X7.545Y-5.167
X7.545Y-5.467
X7.645Y-5.167
X7.645Y-5.467
X7.745Y-5.167
X7.745Y-5.467
X7.845Y-5.167
X7.845Y-5.467
X7.945Y-5.167
X7.945Y-5.467
X8.045Y-5.167
X8.045Y-5.467
X7.6898Y-4.3245
X7.6898Y-4.9245
X7.7898Y-4.3245
X7.7898Y-4.9245
X7.8898Y-4.3245
X7.8898Y-4.9245
X7.9898Y-4.3245
X7.9898Y-4.9245
X8.0898Y-4.3245
X8.0898Y-4.9245
X8.1898Y-4.3245
X8.1898Y-4.9245
X8.2898Y-4.3245
X8.2898Y-4.9245
X8.3898Y-4.3245
X8.3898Y-4.9245
X8.4898Y-4.3245
X8.4898Y-4.9245
X8.5898Y-4.3245
X8.5898Y-4.9245
X8.6898Y-4.3245
X8.6898Y-4.9245
X8.7898Y-4.3245
X8.7898Y-4.9245
X8.8898Y-4.3245
X8.8898Y-4.9245
X8.9898Y-4.3245
X8.9898Y-4.9245
X9.0898Y-4.3245
X9.0898Y-4.9245
X9.1898Y-4.3245
X9.1898Y-4.9245
X9.2898Y-4.3245
X9.2898Y-4.9245
X9.3898Y-4.3245
X9.3898Y-4.9245
X9.4898Y-4.3245
X9.4898Y-4.9245
X9.5898Y-4.3245
X9.5898Y-4.9245
X7.575Y-5.677
X7.575Y-5.977
X7.675Y-5.677
X7.675Y-5.977
X7.775Y-5.677
X7.775Y-5.977
X7.875Y-5.677
X7.875Y-5.977
X7.975Y-5.677
X7.975Y-5.977
X8.075Y-5.677
X8.075Y-5.977
X8.175Y-5.677
X8.175Y-5.977
X6.087Y-3.1995
X6.1854Y-3.1995
X6.087Y-2.7695
X6.087Y-3.0695
X6.187Y-2.7695
X6.187Y-3.0695
X6.287Y-2.7695
X6.287Y-3.0695
X6.387Y-2.7695
X6.387Y-3.0695
X9.182Y-3.047
X9.182Y-3.1454
X9.19Y-4.177
X9.49Y-4.177
X10.34Y-7.847
X10.34Y-7.9454
X9.745Y-5.207
X9.745Y-5.807
X9.845Y-5.207
X9.845Y-5.807
X9.945Y-5.207
X9.945Y-5.807
X10.045Y-5.207
X10.045Y-5.807
X10.145Y-5.207
X10.145Y-5.807
X10.245Y-5.207
X10.245Y-5.807
X10.345Y-5.207
X10.345Y-5.807
X10.445Y-5.207
X10.445Y-5.807
X10.545Y-5.207
X10.545Y-5.807
X10.645Y-5.207
X10.645Y-5.807
X10.745Y-5.207
X10.745Y-5.807
X10.845Y-5.207
X10.845Y-5.807
X10.945Y-5.207
X10.945Y-5.807
X11.045Y-5.207
X11.045Y-5.807
X7.8021Y-2.632
X7.9005Y-2.632
X5.775Y-3.917
X5.775Y-4.517
X5.875Y-3.917
X5.875Y-4.517
X5.975Y-3.917
X5.975Y-4.517
X6.075Y-3.917
X6.075Y-4.517
X6.175Y-3.917
X6.175Y-4.517
X6.275Y-3.917
X6.275Y-4.517
X6.375Y-3.917
X6.375Y-4.517
X6.475Y-3.917
X6.475Y-4.517
X6.575Y-3.917
X6.575Y-4.517
X6.675Y-3.917
X6.675Y-4.517
X6.775Y-3.917
X6.775Y-4.517
X6.875Y-3.917
X6.875Y-4.517
X6.975Y-3.917
X6.975Y-4.517
X7.075Y-3.917
X7.075Y-4.517
X7.075Y-4.747
X7.1734Y-4.747
X7.221Y-5.167
X7.221Y-5.2654
X5.841Y-3.189
X5.841Y-3.489
X10.4975Y-5.072
X10.7975Y-5.072
X8.89Y-4.152
X8.9884Y-4.152
X6.455Y-2.2116
X6.455Y-2.31
X10.145Y-6.0107
X10.445Y-6.0107
X7.2616Y-2.632
X7.36Y-2.632
X7.06Y-2.507
X7.36Y-2.507
X5.845Y-2.2116
X5.845Y-2.31
X8.3279Y-2.707
X8.4279Y-2.707
X8.5279Y-2.707
X8.6279Y-2.707
X8.7279Y-2.707
X8.8279Y-2.707
X8.9279Y-2.707
X9.0279Y-2.707
X9.1279Y-2.707
X9.2279Y-2.707
X9.3279Y-2.707
X10.2Y-6.217
X10.3921Y-6.217
X6.317Y-3.1995
X6.4154Y-3.1995
X8.628Y-2.1915
X8.628Y-2.4915
X8.728Y-2.1915
X8.728Y-2.4915
X8.828Y-2.1915
X8.828Y-2.4915
X8.928Y-2.1915
X8.928Y-2.4915
X9.028Y-2.1915
X9.028Y-2.4915
X9.128Y-2.1915
X9.128Y-2.4915
X9.228Y-2.1915
X9.228Y-2.4915
X9.328Y-2.1915
X9.328Y-2.4915
X5.69Y-6.397
X5.69Y-6.597
X5.79Y-6.497
T4
X9.655Y-2.507
X9.655Y-2.607
X10.695Y-2.507
X10.695Y-2.607
X10.955Y-2.507
X10.955Y-2.607
X11.475Y-5.602
X11.475Y-5.7595
X11.475Y-5.917
X11.475Y-2.507
X11.475Y-2.607
X10.435Y-2.507
X10.435Y-2.607
X9.915Y-2.507
X9.915Y-2.607
X5.561Y-3.353
X5.661Y-3.353
X11.215Y-2.507
X11.215Y-2.607
X10.175Y-2.507
X10.175Y-2.607
T5
X11.419Y-6.706
X11.419Y-6.8044
X11.4977Y-6.706
X11.4977Y-6.8044
T6
X11.415Y-3.317
X11.415Y-3.417
X11.415Y-3.517
X11.415Y-3.617
X11.415Y-3.717
X11.415Y-3.817
X11.415Y-3.917
X11.415Y-4.017
X11.415Y-4.117
X11.415Y-4.217
X11.415Y-4.317
X11.415Y-4.417
X11.415Y-4.517
X11.415Y-4.617
X11.415Y-4.717
X11.415Y-4.817
X11.415Y-4.917
X11.415Y-5.017
X11.415Y-5.117
X11.415Y-5.217
X11.515Y-3.317
X11.515Y-3.417
X11.515Y-3.517
X11.515Y-3.617
X11.515Y-3.717
X11.515Y-3.817
X11.515Y-3.917
X11.515Y-4.017
X11.515Y-4.117
X11.515Y-4.217
X11.515Y-4.317
X11.515Y-4.417
X11.515Y-4.517
X11.515Y-4.617
X11.515Y-4.717
X11.515Y-4.817
X11.515Y-4.917
X11.515Y-5.017
X11.515Y-5.117
X11.515Y-5.217
X11.377Y-7.3351
X11.377Y-7.5989
X11.475Y-7.3351
X11.475Y-7.4158
X11.475Y-7.5182
X11.475Y-7.5989
X6.0575Y-2.309
X6.1575Y-2.309
X6.2575Y-2.309
T7
X7.6441Y-2.1923
X7.6441Y-2.3694
X7.9Y-2.1923
X7.9Y-2.3694
X7.1041Y-2.1923
X7.1041Y-2.3694
X7.36Y-2.1923
X7.36Y-2.3694
T8
X6.215Y-6.877
X6.315Y-6.877
X6.415Y-6.877
X6.515Y-6.877
X6.615Y-6.877
X6.715Y-6.877
X6.815Y-6.877
X6.915Y-6.877
X7.015Y-6.877
X7.115Y-6.877
X7.215Y-6.877
X7.315Y-6.877
X7.415Y-6.877
X7.515Y-6.877
X7.615Y-6.877
X7.715Y-6.877
X11.4061Y-5.5233
X11.4061Y-5.9957
X11.6423Y-5.5233
X11.6423Y-5.9957
T9
X11.5931Y-7.2009
X11.5931Y-7.7331
X11.625Y-7.467
T10
X11.6044Y-6.5182
X11.6044Y-6.9922
T11
X5.9985Y-6.877
X5.9985Y-8.0975
X8.9512Y-8.0975
X8.9512Y-6.877
T12
X5.6319Y-8.1224
X11.5374Y-8.1224
X11.5374Y-2.2169
X5.6319Y-2.2169
T3
G00X5.5677Y-2.6007
M15
G01X5.5677Y-2.6873
M16
G05
G00X5.6346Y-2.833
M15
G01X5.7212Y-2.833
M16
G05
G00X5.796Y-2.5928
M15
G01X5.796Y-2.6952
M16
G05
T0
M30
